# AST/ASF file generated using VICON BodyLanguage
# -----------------------------------------------
:version 1.10
:name VICON
:units
  mass 1.0
  length 0.45
  angle deg
:documentation
   .ast/.asf automatically generated from VICON data using
   VICON BodyBuilder and BodyLanguage model FoxedUp or BRILLIANT.MOD
:root
   order TX TY TZ RX RY RZ
   axis XYZ
   position 0 0 0  
   orientation 0 0 0 
:bonedata
  begin
     id 1 
     name lhipjoint
     direction 0.597014 -0.743513 0.301268 
     length 2.48253 
     axis 0 0 0  XYZ
  end
  begin
     id 2 
     name lfemur
     direction 0.34202 -0.939693 0  
     length 7.51389  
     axis 0 0 20  XYZ
    dof rx ry rz
    limits (-160.0 20.0)
           (-70.0 70.0)
           (-60.0 70.0)
  end
  begin
     id 3 
     name ltibia
     direction 0.34202 -0.939693 0   
     length 7.54147   
     axis 0 0 20   XYZ
    dof rx
    limits (-10.0 170.0)
  end
  begin
     id 4 
     name lfoot
     direction 0.10378 -0.285133 0.952853   
     length 2.2132   
     axis -90 7.62852e-016 20   XYZ
    dof rx rz
    limits (-45.0 90.0)
           (-70.0 20.0)
  end
  begin
     id 5 
     name ltoes
     direction 1.5354e-011 -4.2171e-011 1   
     length 1.10362   
     axis -90 7.62852e-016 20   XYZ
    dof rx
    limits (-90.0 20.0)
  end
  begin
     id 6 
     name rhipjoint
     direction -0.591912 -0.747009 0.302685   
     length 2.47092  
     axis 0 0 0  XYZ 
  end
  begin
     id 7 
     name rfemur
     direction -0.34202 -0.939693 0   
     length 7.69991   
     axis 0 0 -20   XYZ
    dof rx ry rz
    limits (-160.0 20.0)
           (-70.0 70.0)
           (-70.0 60.0)
  end
  begin
     id 8 
     name rtibia
     direction -0.34202 -0.939693 0   
     length 7.40774   
     axis 0 0 -20   XYZ
    dof rx
    limits (-10.0 170.0)
 end
 begin
     id 9 
     name rfoot
     direction -0.0916245 -0.251736 0.963449   
     length 2.08235  
     axis -90 -7.62852e-016 -20   XYZ
    dof rx rz
    limits (-45.0 90.0)
           (-20.0 70.0)
  end
  begin
     id 10 
     name rtoes
     direction -1.53527e-011 -4.21878e-011 1   
     length 1.04369   
     axis -90 -7.62852e-016 -20   XYZ
    dof rx
    limits (-90.0 20.0)
  end
  begin
     id 11 
     name lowerback
     direction -0.0122523 0.991496 -0.12956   
     length 2.10814   
     axis 0 0 0   XYZ
    dof rx ry rz
    limits (-20.0 45.0)
           (-30.0 30.0)
           (-30.0 30.0)
  end
  begin
     id 12 
     name upperback
     direction 0.012378 0.999784 -0.0167122   
     length 2.11728   
     axis 0 0 0   XYZ
    dof rx ry rz
    limits (-20.0 45.0)
           (-30.0 30.0)
           (-30.0 30.0)
  end
  begin
     id 13 
     name thorax
     direction 0.0187236 0.998893 0.0431542   
     length 2.15267   
     axis 0 0 0   XYZ
    dof rx ry rz
    limits (-20.0 45.0)
           (-30.0 30.0)
           (-30.0 30.0)
  end
  begin
     id 14 
     name lowerneck
     direction 0.0165467 0.987304 0.157979   
     length 1.72129   
     axis 0 0 0   XYZ
    dof rx ry rz
    limits (-20.0 45.0)
           (-30.0 30.0)
           (-30.0 30.0)
  end
  begin
     id 15 
     name upperneck
     direction -0.0560236 0.986819 -0.151818   
     length 1.75382   
     axis 0 0 0   XYZ
    dof rx ry rz
    limits (-20.0 45.0)
           (-30.0 30.0)
           (-30.0 30.0)
  end
  begin
     id 16
     name head
     direction -0.0173602 0.99745 -0.0692312  
     length 1.76328  
     axis 0 0 0   XYZ
    dof rx ry rz
    limits (-20.0 45.0)
           (-30.0 30.0)
           (-30.0 30.0)
  end
  begin
     id 17 
     name lclavicle
     direction 0.957734 0.271724 -0.094399  
     length 3.5782  
     axis 0 0 0   XYZ
    dof ry rz
    limits (-20.0 10.0)
           (0.0 20.0)
  end
  begin
     id 18 
     name lhumerus
     direction 1 -4.48963e-011 1.21581e-027   
     length 5.25525   
     axis 180 -30 -90   XYZ
    dof rx ry rz
    limits (-60.0 90.0)
           (-90.0 90.0)
           (-90.0 90.0)
  end
  begin
     id 19
     name lradius
     direction 1 -4.48975e-011 3.71216e-028   
     length 3.35106   
     axis 180 -30 -90   XYZ
    dof rx
    limits (-10.0 170.0)
  end
  begin
     id 20
     name lwrist
     direction 1 -4.48957e-011 4.76535e-027   
     length 1.67553   
     axis -3.27501e-015 90 90   XYZ
    dof ry
    limits (-180.0 0.0)
 end
  begin
     id 21 
     name lhand
     direction 1 -4.49008e-011 9.52727e-027   
     length 0.574153   
     axis -6.08097e-015 90 90   XYZ
    dof rx rz
    limits (-90.0 90.0)
           (-45.0 45.0)
  end
  begin
     id 22 
     name lfingers
     direction 1 -4.48996e-011 1.90562e-026   
     length 0.462897   
     axis -1.21618e-014 90 90   XYZ
    dof rx
    limits (0.0 90.0)
  end
  begin
     id 23
     name lthumb
     direction 0.707107 -6.34908e-011 0.707107   
     length 0.66463   
     axis -90 45 -1.62303e-014   XYZ
    dof rx rz
    limits (-45.0 45.0)
           (-45.0 45.0)
  end
  begin
     id 24 
     name rclavicle
     direction -0.950439 0.29623 -0.0944132   
     length 3.45861  
     axis 0 0 0   XYZ 
    dof ry rz
    limits (-10.0 20.0)
           (-20.0 0.0)
  end
  begin
     id 25 
     name rhumerus
     direction -1 -4.48986e-011 1.25473e-027  
     length 5.33104   
     axis 180 30 90   XYZ
    dof rx ry rz
    limits (-90.0 60.0)
           (-90.0 90.0)
           (-90.0 90.0)
  end
  begin
     id 26 
     name rradius
     direction -1 -4.4894e-011 1.66273e-027   
     length 3.39883   
     axis 180 30 90   XYZ
    dof rx
    limits (-10.0 170.0)
  end
  begin
     id 27 
     name rwrist
     direction -1 -4.48946e-011 4.76572e-027   
     length 1.69941   
     axis -3.27501e-015 -90 -90   XYZ
    dof ry
    limits (-180.0 0.0)
  end
  begin
     id 28
     name rhand
     direction -1 -4.49028e-011 9.52595e-027   
     length 0.913886   
     axis -6.08097e-015 -90 -90   XYZ
    dof rx rz
    limits (-90.0 90.0)
           (-45.0 45.0)
  end
  begin
     id 29
     name rfingers
     direction -1 -4.48945e-011 1.9063e-026   
     length 0.736798   
     axis -1.21618e-014 -90 -90   XYZ
    dof rx
    limits (0.0 90.0)
  end
  begin
     id 30
     name rthumb
     direction -0.707107 -6.34966e-011 0.707107   
     length 1.0579   
     axis -90 -45 1.62303e-014   XYZ
    dof rx rz
    limits (-45.0 45.0)
           (-45.0 45.0)
  end
:hierarchy
  begin
    root lhipjoint rhipjoint lowerback
    lhipjoint lfemur
    lfemur ltibia
    ltibia lfoot
    lfoot ltoes
    rhipjoint rfemur
    rfemur rtibia
    rtibia rfoot
    rfoot rtoes
    lowerback upperback
    upperback thorax
    thorax lowerneck lclavicle rclavicle
    lowerneck upperneck
    upperneck head
    lclavicle lhumerus
    lhumerus lradius
    lradius lwrist
    lwrist lhand lthumb
    lhand lfingers
    rclavicle rhumerus
    rhumerus rradius
    rradius rwrist
    rwrist rhand rthumb
    rhand rfingers
  end

#!OML:ASF F:\VICON\USERDATA\INSTALL\rory3\rory3.ASF
:FULLY-SPECIFIED
:DEGREES
1
root -3.7797 17.3551 38.2866 176.832 -22.793 -178.728
lowerback 9.86267 1.53586 2.17049
upperback 1.92002 2.14879 0.292072
thorax -3.4581 0.990721 -1.18484
lowerneck -11.3308 15.1678 7.72274
upperneck 12.3455 20.5142 -8.35681
head 7.28071 9.57687 -1.6471
rclavicle -2.87803e-014 6.4605e-015
rhumerus -37.2577 29.1538 -95.9782
rradius 113.264
rwrist 5.02188
rhand -30.5288 11.1988
rfingers 7.12502
rthumb -3.82815 -18.7466
lclavicle -2.87803e-014 6.4605e-015
lhumerus -27.9661 -36.9913 100.957
lradius 102.757
lwrist 21.693
lhand -33.3271 30.1794
lfingers 7.12502
lthumb -6.52996 60.0587
rfemur -4.36929 -1.73752 19.9458
rtibia 34.6537
rfoot -23.2913 -13.8795
rtoes 7.53142
lfemur -15.4421 -6.37213 -17.7794
ltibia 40.0862
lfoot -16.2899 -6.39728
ltoes -7.41482
2
root -3.72641 17.359 38.2806 176.842 -22.7619 -178.625
lowerback 9.08553 1.5822 1.53201
upperback 2.41802 2.11647 0.89512
thorax -2.55974 0.981203 -0.167481
lowerneck -11.7778 15.2291 7.12265
upperneck 12.0622 20.733 -8.84138
head 7.27438 9.60202 -1.6618
rclavicle 6.26669e-014 -5.1684e-015
rhumerus -36.3306 29.4013 -94.8767
rradius 113.266
rwrist 4.8509
rhand -30.7226 11.033
rfingers 7.12502
rthumb -4.01526 -18.9089
lclavicle 6.26669e-014 -5.1684e-015
lhumerus -26.6361 -36.3869 101.018
lradius 102.632
lwrist 21.6141
lhand -32.9513 29.996
lfingers 7.12502
lthumb -6.16715 59.8862
rfemur -4.3963 -1.57772 20.2348
rtibia 34.5395
rfoot -23.5291 -13.463
rtoes 10.4028
lfemur -15.5787 -6.27451 -17.4587
ltibia 40.126
lfoot -16.2718 -6.43489
ltoes -7.80138
3
root -3.6736 17.3634 38.2759 176.817 -22.613 -178.512
lowerback 9.8468 1.57608 2.23521
upperback 1.89314 2.21483 0.443477
thorax -3.47852 1.02274 -1.07243
lowerneck -11.8366 15.1714 7.5283
upperneck 12.625 20.5456 -8.33138
head 7.43631 9.55447 -1.56365
rclavicle -9.10682e-015 -2.48481e-015
rhumerus -37.0295 28.2913 -95.8523
rradius 113.387
rwrist 4.72016
rhand -30.318 11.8161
rfingers 7.12502
rthumb -3.62453 -18.1328
lclavicle -9.10682e-015 -2.48481e-015
lhumerus -27.291 -36.643 100.852
lradius 102.661
lwrist 21.6389
lhand -32.8069 29.3902
lfingers 7.12502
lthumb -6.02781 59.2845
rfemur -4.46647 -1.3392 20.5652
rtibia 34.4591
rfoot -23.5778 -13.4611
rtoes 11.2954
lfemur -15.6147 -6.09519 -17.1286
ltibia 40.0881
lfoot -16.3202 -6.45845
ltoes -8.67201
4
root -3.62455 17.3695 38.2713 176.798 -22.5448 -178.417
lowerback 9.00962 1.6686 1.51217
upperback 2.45216 2.22946 1.15939
thorax -2.49238 1.03552 0.106864
lowerneck -12.7289 15.111 6.54189
upperneck 12.724 20.6363 -8.51664
head 7.545 9.49255 -1.4151
rclavicle 2.03009e-014 -1.19271e-014
rhumerus -35.968 28.5082 -94.4124
rradius 113.341
rwrist 4.6061
rhand -30.4504 12.283
rfingers 7.12502
rthumb -3.75239 -17.6637
lclavicle 2.03009e-014 -1.19271e-014
lhumerus -25.965 -36.2565 101.122
lradius 102.522
lwrist 21.4269
lhand -33.0494 29.3399
lfingers 7.12502
lthumb -6.26195 59.2274
rfemur -4.53131 -1.40919 20.8191
rtibia 34.4138
rfoot -23.5471 -13.3033
rtoes 11.7896
lfemur -15.6185 -6.37656 -16.8648
ltibia 40.0479
lfoot -16.3352 -6.15362
ltoes -8.75271
5
root -3.57681 17.3708 38.2653 176.715 -22.3432 -178.264
lowerback 9.68198 1.63964 2.25065
upperback 2.04517 2.29227 0.699457
thorax -3.23659 1.06129 -0.817202
lowerneck -12.0894 15.1639 7.43294
upperneck 12.4507 20.5733 -8.60971
head 7.44624 9.53431 -1.61742
rclavicle -4.67641e-014 1.15295e-014
rhumerus -36.6055 27.4821 -95.5304
rradius 113.489
rwrist 4.67857
rhand -30.5983 12.496
rfingers 7.12502
rthumb -3.89525 -17.4481
lclavicle -4.67641e-014 1.15295e-014
lhumerus -26.6524 -36.601 100.874
lradius 102.664
lwrist 21.4517
lhand -32.889 29.0662
lfingers 7.12502
lthumb -6.1071 58.9582
rfemur -4.50722 -1.21355 21.1702
rtibia 34.3737
rfoot -23.5868 -13.1657
rtoes 12.9108
lfemur -15.5737 -6.4614 -16.5546
ltibia 40.002
lfoot -16.2648 -5.75454
ltoes -8.69084
6
root -3.52946 17.3721 38.2591 176.736 -22.1702 -178.354
lowerback 9.90645 1.62248 2.29837
upperback 1.93148 2.28448 0.606994
thorax -3.47354 1.05487 -0.948098
lowerneck -12.0946 15.1811 7.41769
upperneck 12.4956 20.5772 -8.45526
head 7.44239 9.5479 -1.56747
rclavicle 4.37699e-014 -2.88238e-015
rhumerus -36.6594 26.9824 -95.7331
rradius 113.575
rwrist 4.59097
rhand -30.7277 12.8203
rfingers 7.12502
rthumb -4.02023 -17.1215
lclavicle 4.37699e-014 -2.88238e-015
lhumerus -26.6056 -36.5632 100.79
lradius 102.688
lwrist 21.2878
lhand -32.1909 28.7756
lfingers 7.12502
lthumb -5.43304 58.6859
rfemur -4.53765 -1.19283 21.2403
rtibia 34.3583
rfoot -23.4879 -13.0679
rtoes 12.8762
lfemur -15.5251 -6.43202 -16.4898
ltibia 39.9317
lfoot -16.3089 -5.52348
ltoes -9.20579
